<svg width="192" height="27" viewBox="0 0 192 27" fill="none" xmlns="http://www.w3.org/2000/svg">
<g clip-path="url(#clip0_2_13)">
<path d="M5.28409 25H0.784091L8.97727 1.72727H14.1818L22.3864 25H17.8864L11.6705 6.5H11.4886L5.28409 25ZM5.43182 15.875H17.7045V19.2614H5.43182V15.875ZM29.3835 14.7727V25H25.2699V7.54545H29.2017V10.5114H29.4062C29.8078 9.53409 30.4479 8.75758 31.3267 8.18182C32.2131 7.60606 33.3078 7.31818 34.6108 7.31818C35.8153 7.31818 36.8646 7.57576 37.7585 8.09091C38.66 8.60606 39.357 9.35227 39.8494 10.3295C40.3494 11.3068 40.5956 12.4924 40.5881 13.8864V25H36.4744V14.5227C36.4744 13.3561 36.1714 12.4432 35.5653 11.7841C34.9669 11.125 34.1373 10.7955 33.0767 10.7955C32.357 10.7955 31.7169 10.9545 31.1562 11.2727C30.6032 11.5833 30.1676 12.0341 29.8494 12.625C29.5388 13.2159 29.3835 13.9318 29.3835 14.7727ZM44.7699 25V7.54545H48.8835V25H44.7699ZM46.8381 5.06818C46.1866 5.06818 45.6259 4.85227 45.1562 4.42045C44.6866 3.98106 44.4517 3.45454 44.4517 2.84091C44.4517 2.2197 44.6866 1.69318 45.1562 1.26136C45.6259 0.821969 46.1866 0.602272 46.8381 0.602272C47.4972 0.602272 48.0578 0.821969 48.5199 1.26136C48.9896 1.69318 49.2244 2.2197 49.2244 2.84091C49.2244 3.45454 48.9896 3.98106 48.5199 4.42045C48.0578 4.85227 47.4972 5.06818 46.8381 5.06818ZM56.8636 19.5227L56.8523 14.5568H57.5114L63.7841 7.54545H68.5909L60.875 16.1364H60.0227L56.8636 19.5227ZM53.1136 25V1.72727H57.2273V25H53.1136ZM64.0682 25L58.3864 17.0568L61.1591 14.1591L68.9886 25H64.0682ZM78.3409 25.3409C76.5909 25.3409 75.0795 24.9773 73.8068 24.25C72.5417 23.5152 71.5682 22.4773 70.8864 21.1364C70.2045 19.7879 69.8636 18.2008 69.8636 16.375C69.8636 14.5795 70.2045 13.0038 70.8864 11.6477C71.5758 10.2841 72.5379 9.22348 73.7727 8.46591C75.0076 7.70076 76.4583 7.31818 78.125 7.31818C79.2008 7.31818 80.2159 7.49242 81.1705 7.84091C82.1326 8.18182 82.9811 8.71212 83.7159 9.43182C84.4583 10.1515 85.0417 11.0682 85.4659 12.1818C85.8902 13.2879 86.1023 14.6061 86.1023 16.1364V17.3977H71.7955V14.625H82.1591C82.1515 13.8371 81.9811 13.1364 81.6477 12.5227C81.3144 11.9015 80.8485 11.4129 80.25 11.0568C79.6591 10.7008 78.9697 10.5227 78.1818 10.5227C77.3409 10.5227 76.6023 10.7273 75.9659 11.1364C75.3295 11.5379 74.8333 12.0682 74.4773 12.7273C74.1288 13.3788 73.9508 14.0947 73.9432 14.875V17.2955C73.9432 18.3106 74.1288 19.1818 74.5 19.9091C74.8712 20.6288 75.3902 21.1818 76.0568 21.5682C76.7235 21.947 77.5038 22.1364 78.3977 22.1364C78.9962 22.1364 79.5379 22.053 80.0227 21.8864C80.5076 21.7121 80.928 21.4583 81.2841 21.125C81.6402 20.7917 81.9091 20.3788 82.0909 19.8864L85.9318 20.3182C85.6894 21.3333 85.2273 22.2197 84.5455 22.9773C83.8712 23.7273 83.0076 24.3106 81.9545 24.7273C80.9015 25.1364 79.697 25.3409 78.3409 25.3409ZM98.2983 7.54545V10.7273H88.2642V7.54545H98.2983ZM90.7415 3.36364H94.8551V19.75C94.8551 20.303 94.9384 20.7273 95.1051 21.0227C95.2794 21.3106 95.5066 21.5076 95.7869 21.6136C96.0672 21.7197 96.3778 21.7727 96.7188 21.7727C96.9763 21.7727 97.2112 21.7538 97.4233 21.7159C97.643 21.678 97.8097 21.6439 97.9233 21.6136L98.6165 24.8295C98.3968 24.9053 98.0824 24.9886 97.6733 25.0795C97.2718 25.1705 96.7794 25.2235 96.196 25.2386C95.1657 25.2689 94.2377 25.1136 93.4119 24.7727C92.5862 24.4242 91.9309 23.8864 91.446 23.1591C90.9688 22.4318 90.7339 21.5227 90.7415 20.4318V3.36364ZM106.227 14.7727V25H102.114V1.72727H106.136V10.5114H106.341C106.75 9.52651 107.383 8.75 108.239 8.18182C109.102 7.60606 110.201 7.31818 111.534 7.31818C112.746 7.31818 113.803 7.57197 114.705 8.07954C115.606 8.58712 116.303 9.32954 116.795 10.3068C117.295 11.2841 117.545 12.4773 117.545 13.8864V25H113.432V14.5227C113.432 13.3485 113.129 12.4356 112.523 11.7841C111.924 11.125 111.083 10.7955 110 10.7955C109.273 10.7955 108.621 10.9545 108.045 11.2727C107.477 11.5833 107.03 12.0341 106.705 12.625C106.386 13.2159 106.227 13.9318 106.227 14.7727ZM139.04 1.72727H143.222V18.0909C143.214 19.5909 142.896 20.8826 142.267 21.9659C141.638 23.0417 140.759 23.8712 139.631 24.4545C138.509 25.0303 137.203 25.3182 135.71 25.3182C134.347 25.3182 133.119 25.0758 132.028 24.5909C130.945 24.0985 130.085 23.3712 129.449 22.4091C128.813 21.447 128.494 20.25 128.494 18.8182H132.688C132.695 19.447 132.831 19.9886 133.097 20.4432C133.369 20.8977 133.744 21.2462 134.222 21.4886C134.699 21.7311 135.248 21.8523 135.869 21.8523C136.544 21.8523 137.116 21.7121 137.585 21.4318C138.055 21.1439 138.411 20.7197 138.653 20.1591C138.903 19.5985 139.032 18.9091 139.04 18.0909V1.72727ZM152.636 25.3523C151.53 25.3523 150.534 25.1553 149.648 24.7614C148.769 24.3598 148.072 23.7689 147.557 22.9886C147.049 22.2083 146.795 21.2462 146.795 20.1023C146.795 19.1174 146.977 18.303 147.341 17.6591C147.705 17.0152 148.201 16.5 148.83 16.1136C149.458 15.7273 150.167 15.4356 150.955 15.2386C151.75 15.0341 152.572 14.8864 153.42 14.7955C154.443 14.6894 155.273 14.5947 155.909 14.5114C156.545 14.4205 157.008 14.2841 157.295 14.1023C157.591 13.9129 157.739 13.6212 157.739 13.2273V13.1591C157.739 12.303 157.485 11.6402 156.977 11.1705C156.47 10.7008 155.739 10.4659 154.784 10.4659C153.777 10.4659 152.977 10.6856 152.386 11.125C151.803 11.5644 151.409 12.0833 151.205 12.6818L147.364 12.1364C147.667 11.0758 148.167 10.1894 148.864 9.47727C149.561 8.75757 150.413 8.2197 151.42 7.86364C152.428 7.5 153.542 7.31818 154.761 7.31818C155.602 7.31818 156.439 7.41667 157.273 7.61364C158.106 7.81061 158.867 8.13636 159.557 8.59091C160.246 9.03788 160.799 9.64773 161.216 10.4205C161.64 11.1932 161.852 12.1591 161.852 13.3182V25H157.898V22.6023H157.761C157.511 23.0871 157.159 23.5417 156.705 23.9659C156.258 24.3826 155.693 24.7197 155.011 24.9773C154.337 25.2273 153.545 25.3523 152.636 25.3523ZM153.705 22.3295C154.53 22.3295 155.246 22.1667 155.852 21.8409C156.458 21.5076 156.924 21.0682 157.25 20.5227C157.583 19.9773 157.75 19.3826 157.75 18.7386V16.6818C157.621 16.7879 157.402 16.8864 157.091 16.9773C156.788 17.0682 156.447 17.1477 156.068 17.2159C155.689 17.2841 155.314 17.3447 154.943 17.3977C154.572 17.4508 154.25 17.4962 153.977 17.5341C153.364 17.6174 152.814 17.7538 152.33 17.9432C151.845 18.1326 151.462 18.3977 151.182 18.7386C150.902 19.072 150.761 19.5038 150.761 20.0341C150.761 20.7917 151.038 21.3636 151.591 21.75C152.144 22.1364 152.848 22.3295 153.705 22.3295ZM165.989 25V7.54545H170.102V25H165.989ZM168.057 5.06818C167.405 5.06818 166.845 4.85227 166.375 4.42045C165.905 3.98106 165.67 3.45454 165.67 2.84091C165.67 2.2197 165.905 1.69318 166.375 1.26136C166.845 0.821969 167.405 0.602272 168.057 0.602272C168.716 0.602272 169.277 0.821969 169.739 1.26136C170.208 1.69318 170.443 2.2197 170.443 2.84091C170.443 3.45454 170.208 3.98106 169.739 4.42045C169.277 4.85227 168.716 5.06818 168.057 5.06818ZM178.446 14.7727V25H174.332V7.54545H178.264V10.5114H178.469C178.87 9.53409 179.51 8.75758 180.389 8.18182C181.276 7.60606 182.37 7.31818 183.673 7.31818C184.878 7.31818 185.927 7.57576 186.821 8.09091C187.723 8.60606 188.42 9.35227 188.912 10.3295C189.412 11.3068 189.658 12.4924 189.651 13.8864V25H185.537V14.5227C185.537 13.3561 185.234 12.4432 184.628 11.7841C184.029 11.125 183.2 10.7955 182.139 10.7955C181.42 10.7955 180.779 10.9545 180.219 11.2727C179.666 11.5833 179.23 12.0341 178.912 12.625C178.601 13.2159 178.446 13.9318 178.446 14.7727Z" fill="black"/>
</g>
<defs>
<clipPath id="clip0_2_13">
<rect width="192" height="27" fill="white"/>
</clipPath>
</defs>
</svg>
